<svg xmlns="http://www.w3.org/2000/svg" xmlns:xlink="http://www.w3.org/1999/xlink" width="200" zoomAndPan="magnify" viewBox="0 0 150 30.000001" height="40" preserveAspectRatio="xMidYMid meet" version="1.0"><defs><g/><clipPath id="005b56f04c"><path d="M 2.417969 0 L 147 0 L 147 29.03125 L 2.417969 29.03125 Z M 2.417969 0 " clip-rule="nonzero"/></clipPath><clipPath id="09464e2ad9"><path d="M 9.160156 0 L 25.160156 0 L 25.160156 4 L 9.160156 4 Z M 9.160156 0 " clip-rule="nonzero"/></clipPath><clipPath id="588ea33377"><path d="M 9.160156 4 L 25.160156 4 L 25.160156 9 L 9.160156 9 Z M 9.160156 4 " clip-rule="nonzero"/></clipPath><clipPath id="827d4c5f8e"><path d="M 9.160156 8 L 25.160156 8 L 25.160156 12.339844 L 9.160156 12.339844 Z M 9.160156 8 " clip-rule="nonzero"/></clipPath><clipPath id="3f3f6c28c8"><path d="M 1 26 L 33 26 L 33 28.933594 L 1 28.933594 Z M 1 26 " clip-rule="nonzero"/></clipPath><clipPath id="84f372a7e8"><path d="M 30 3.199219 L 33.808594 3.199219 L 33.808594 28.933594 L 30 28.933594 Z M 30 3.199219 " clip-rule="nonzero"/></clipPath><clipPath id="c696d63d87"><path d="M 0.417969 3.199219 L 4 3.199219 L 4 28.933594 L 0.417969 28.933594 Z M 0.417969 3.199219 " clip-rule="nonzero"/></clipPath><clipPath id="ca6da1d528"><path d="M 40 3 L 144.652344 3 L 144.652344 26 L 40 26 Z M 40 3 " clip-rule="nonzero"/></clipPath><clipPath id="96093f1e39"><path d="M 98 8 L 104.652344 8 L 104.652344 17 L 98 17 Z M 98 8 " clip-rule="nonzero"/></clipPath><clipPath id="1312c78c19"><rect x="0" width="105" y="0" height="23"/></clipPath><clipPath id="ea4b23ead5"><rect x="0" width="145" y="0" height="30"/></clipPath></defs><g clip-path="url(#005b56f04c)"><g transform="matrix(1, 0, 0, 1, 2, 0.000000000000005692)"><g clip-path="url(#ea4b23ead5)"><g clip-path="url(#09464e2ad9)"><path fill="#10b981" d="M 25.042969 0.933594 C 25.042969 0.3125 24.546875 -0.183594 23.925781 -0.183594 L 10.285156 -0.183594 C 9.664062 -0.183594 9.167969 0.3125 9.167969 0.933594 L 9.167969 2.421875 C 9.167969 3.042969 9.664062 3.539062 10.285156 3.539062 L 23.925781 3.539062 C 24.546875 3.539062 25.042969 3.042969 25.042969 2.421875 Z M 10.890625 2.410156 C 10.496094 2.410156 10.160156 2.074219 10.160156 1.679688 C 10.160156 1.269531 10.496094 0.945312 10.890625 0.945312 C 11.289062 0.945312 11.625 1.28125 11.625 1.679688 C 11.636719 2.074219 11.300781 2.410156 10.890625 2.410156 Z M 20.207031 1.800781 C 20.207031 2.148438 19.933594 2.421875 19.585938 2.421875 L 12.890625 2.421875 C 12.542969 2.421875 12.269531 2.148438 12.269531 1.800781 L 12.269531 1.554688 C 12.269531 1.207031 12.542969 0.933594 12.890625 0.933594 L 19.585938 0.933594 C 19.933594 0.933594 20.207031 1.207031 20.207031 1.554688 Z M 21.074219 2.175781 C 20.800781 2.175781 20.566406 1.949219 20.566406 1.664062 C 20.566406 1.378906 20.789062 1.15625 21.074219 1.15625 C 21.359375 1.15625 21.582031 1.378906 21.582031 1.664062 C 21.582031 1.949219 21.347656 2.175781 21.074219 2.175781 Z M 22.316406 2.175781 C 22.042969 2.175781 21.804688 1.949219 21.804688 1.664062 C 21.804688 1.378906 22.03125 1.15625 22.316406 1.15625 C 22.601562 1.15625 22.824219 1.378906 22.824219 1.664062 C 22.824219 1.949219 22.589844 2.175781 22.316406 2.175781 Z M 23.554688 2.175781 C 23.28125 2.175781 23.046875 1.949219 23.046875 1.664062 C 23.046875 1.378906 23.269531 1.15625 23.554688 1.15625 C 23.839844 1.15625 24.0625 1.378906 24.0625 1.664062 C 24.0625 1.949219 23.828125 2.175781 23.554688 2.175781 Z M 23.554688 2.175781 " fill-opacity="1" fill-rule="nonzero"/></g><g clip-path="url(#588ea33377)"><path fill="#10b981" d="M 25.042969 5.398438 C 25.042969 4.777344 24.546875 4.28125 23.925781 4.28125 L 10.285156 4.28125 C 9.664062 4.28125 9.167969 4.777344 9.167969 5.398438 L 9.167969 6.886719 C 9.167969 7.507812 9.664062 8.003906 10.285156 8.003906 L 23.925781 8.003906 C 24.546875 8.003906 25.042969 7.507812 25.042969 6.886719 Z M 10.890625 6.875 C 10.484375 6.875 10.160156 6.539062 10.160156 6.144531 C 10.160156 5.746094 10.496094 5.410156 10.890625 5.410156 C 11.289062 5.410156 11.625 5.746094 11.625 6.144531 C 11.625 6.539062 11.300781 6.875 10.890625 6.875 Z M 20.207031 6.265625 C 20.207031 6.613281 19.933594 6.886719 19.585938 6.886719 L 12.890625 6.886719 C 12.542969 6.886719 12.269531 6.613281 12.269531 6.265625 L 12.269531 6.019531 C 12.269531 5.671875 12.542969 5.398438 12.890625 5.398438 L 19.585938 5.398438 C 19.933594 5.398438 20.207031 5.671875 20.207031 6.019531 Z M 21.074219 6.640625 C 20.800781 6.640625 20.566406 6.414062 20.566406 6.128906 C 20.566406 5.84375 20.789062 5.621094 21.074219 5.621094 C 21.359375 5.621094 21.582031 5.84375 21.582031 6.128906 C 21.582031 6.414062 21.347656 6.640625 21.074219 6.640625 Z M 22.316406 6.640625 C 22.042969 6.640625 21.804688 6.414062 21.804688 6.128906 C 21.804688 5.84375 22.03125 5.621094 22.316406 5.621094 C 22.601562 5.621094 22.824219 5.84375 22.824219 6.128906 C 22.824219 6.414062 22.589844 6.640625 22.316406 6.640625 Z M 23.554688 6.640625 C 23.28125 6.640625 23.046875 6.414062 23.046875 6.128906 C 23.046875 5.84375 23.269531 5.621094 23.554688 5.621094 C 23.839844 5.621094 24.0625 5.84375 24.0625 6.128906 C 24.0625 6.414062 23.828125 6.640625 23.554688 6.640625 Z M 23.554688 6.640625 " fill-opacity="1" fill-rule="nonzero"/></g><g clip-path="url(#827d4c5f8e)"><path fill="#10b981" d="M 25.042969 9.863281 C 25.042969 9.242188 24.546875 8.746094 23.925781 8.746094 L 10.285156 8.746094 C 9.664062 8.746094 9.167969 9.242188 9.167969 9.863281 L 9.167969 11.351562 C 9.167969 11.972656 9.664062 12.46875 10.285156 12.46875 L 23.925781 12.46875 C 24.546875 12.46875 25.042969 11.972656 25.042969 11.351562 Z M 10.890625 11.328125 C 10.484375 11.328125 10.160156 10.992188 10.160156 10.597656 C 10.160156 10.199219 10.496094 9.863281 10.890625 9.863281 C 11.289062 9.863281 11.625 10.199219 11.625 10.597656 C 11.636719 11.003906 11.300781 11.328125 10.890625 11.328125 Z M 20.207031 10.730469 C 20.207031 11.078125 19.933594 11.351562 19.585938 11.351562 L 12.890625 11.351562 C 12.542969 11.351562 12.269531 11.078125 12.269531 10.730469 L 12.269531 10.484375 C 12.269531 10.136719 12.542969 9.863281 12.890625 9.863281 L 19.585938 9.863281 C 19.933594 9.863281 20.207031 10.136719 20.207031 10.484375 Z M 21.074219 11.09375 C 20.800781 11.09375 20.566406 10.867188 20.566406 10.582031 C 20.566406 10.296875 20.789062 10.074219 21.074219 10.074219 C 21.359375 10.074219 21.582031 10.296875 21.582031 10.582031 C 21.582031 10.867188 21.347656 11.09375 21.074219 11.09375 Z M 22.316406 11.09375 C 22.042969 11.09375 21.804688 10.867188 21.804688 10.582031 C 21.804688 10.296875 22.03125 10.074219 22.316406 10.074219 C 22.601562 10.074219 22.824219 10.296875 22.824219 10.582031 C 22.824219 10.867188 22.589844 11.09375 22.316406 11.09375 Z M 23.554688 11.09375 C 23.28125 11.09375 23.046875 10.867188 23.046875 10.582031 C 23.046875 10.296875 23.269531 10.074219 23.554688 10.074219 C 23.839844 10.074219 24.0625 10.296875 24.0625 10.582031 C 24.0625 10.867188 23.828125 11.09375 23.554688 11.09375 Z M 23.554688 11.09375 " fill-opacity="1" fill-rule="nonzero"/></g><g clip-path="url(#3f3f6c28c8)"><path fill="#4a4dae" d="M 1.730469 26.558594 L 32.5 26.558594 L 32.5 29.003906 L 1.730469 29.003906 Z M 1.730469 26.558594 " fill-opacity="1" fill-rule="evenodd"/></g><g clip-path="url(#84f372a7e8)"><path fill="#4a4dae" d="M 31.496094 3.199219 L 33.792969 29.003906 L 30.269531 29.003906 L 30.269531 3.199219 Z M 31.496094 3.199219 L 33.792969 29.003906 L 30.269531 29.003906 L 30.269531 3.199219 Z M 31.496094 3.199219 " fill-opacity="1" fill-rule="nonzero"/></g><g clip-path="url(#c696d63d87)"><path fill="#4a4dae" d="M 2.734375 3.199219 L 0.433594 29.003906 L 3.957031 29.003906 L 3.957031 3.199219 Z M 2.734375 3.199219 L 0.433594 29.003906 L 3.957031 29.003906 L 3.957031 3.199219 Z M 2.734375 3.199219 " fill-opacity="1" fill-rule="nonzero"/></g><path fill="#4a4dae" d="M 11.800781 22.378906 L 13.40625 22.378906 L 13.40625 26.859375 L 11.800781 26.859375 Z M 11.800781 22.378906 " fill-opacity="1" fill-rule="evenodd"/><path fill="#4a4dae" d="M 20.820312 22.378906 L 22.425781 22.378906 L 22.425781 26.859375 L 20.820312 26.859375 Z M 20.820312 22.378906 " fill-opacity="1" fill-rule="evenodd"/><path fill="#000000" d="M 5.191406 10.933594 L 8.5 21.476562 L 17.101562 25.46875 L 17.101562 6.96875 Z M 5.191406 10.933594 L 8.5 21.476562 L 17.101562 25.472656 L 17.101562 6.96875 Z M 29.027344 10.933594 L 25.710938 21.476562 L 17.101562 25.46875 L 17.101562 6.964844 Z M 29.027344 10.933594 L 25.710938 21.476562 L 17.101562 25.472656 L 17.101562 6.964844 Z M 29.027344 10.933594 " fill-opacity="1" fill-rule="nonzero"/><path fill="#4a4dae" d="M 5.996094 11.285156 L 9.085938 21.125 L 17.113281 24.851562 L 17.113281 7.585938 Z M 5.996094 11.285156 L 9.085938 21.125 L 17.113281 24.851562 L 17.113281 7.585938 Z M 5.996094 11.285156 " fill-opacity="1" fill-rule="nonzero"/><path fill="#10b981" d="M 28.242188 11.285156 L 25.148438 21.125 L 17.113281 24.851562 L 17.113281 7.585938 Z M 28.242188 11.285156 L 25.148438 21.125 L 17.113281 24.851562 L 17.113281 7.585938 Z M 28.242188 11.285156 " fill-opacity="1" fill-rule="nonzero"/><path fill="#000000" d="M 17.050781 7.585938 L 17.175781 7.585938 L 17.175781 24.851562 L 17.050781 24.851562 Z M 17.050781 7.585938 " fill-opacity="1" fill-rule="evenodd"/><g clip-path="url(#ca6da1d528)"><g transform="matrix(1, 0, 0, 1, 40, 3)"><g clip-path="url(#1312c78c19)"><g fill="#ffffff" fill-opacity="1"><g transform="translate(1.177472, 16.912364)"><g><path d="M 3.46875 0 L 1.453125 0 L 1.453125 -11.140625 L 4.328125 -11.140625 L 7.15625 -2.953125 L 7.3125 -2.953125 L 10.109375 -11.140625 L 12.921875 -11.140625 L 12.921875 0 L 10.84375 0 L 10.84375 -7.359375 L 10.640625 -7.390625 L 8.078125 0 L 6.234375 0 L 3.65625 -7.390625 L 3.46875 -7.359375 Z M 3.46875 0 "/></g></g></g><g fill="#ffffff" fill-opacity="1"><g transform="translate(15.555651, 16.912364)"><g><path d="M 6.09375 0.15625 C 5.0625 0.15625 4.15625 -0.0546875 3.375 -0.484375 C 2.59375 -0.910156 1.976562 -1.550781 1.53125 -2.40625 C 1.09375 -3.257812 0.875 -4.316406 0.875 -5.578125 C 0.875 -6.828125 1.09375 -7.878906 1.53125 -8.734375 C 1.976562 -9.585938 2.59375 -10.226562 3.375 -10.65625 C 4.15625 -11.082031 5.0625 -11.296875 6.09375 -11.296875 C 7.164062 -11.296875 8.078125 -11.085938 8.828125 -10.671875 C 9.578125 -10.253906 10.109375 -9.613281 10.421875 -8.75 L 8.8125 -7.78125 L 8.625 -7.78125 C 8.382812 -8.363281 8.0625 -8.78125 7.65625 -9.03125 C 7.25 -9.28125 6.726562 -9.40625 6.09375 -9.40625 C 5.164062 -9.40625 4.441406 -9.097656 3.921875 -8.484375 C 3.398438 -7.867188 3.140625 -6.898438 3.140625 -5.578125 C 3.140625 -4.242188 3.398438 -3.269531 3.921875 -2.65625 C 4.441406 -2.050781 5.164062 -1.75 6.09375 -1.75 C 7.539062 -1.75 8.425781 -2.453125 8.75 -3.859375 L 8.9375 -3.859375 L 10.5625 -3.015625 C 10.257812 -1.953125 9.738281 -1.15625 9 -0.625 C 8.257812 -0.101562 7.289062 0.15625 6.09375 0.15625 Z M 6.09375 0.15625 "/></g></g></g><g fill="#ffffff" fill-opacity="1"><g transform="translate(26.482149, 16.912364)"><g><path d="M 5.75 -11.140625 C 6.550781 -11.140625 7.234375 -10.992188 7.796875 -10.703125 C 8.367188 -10.410156 8.796875 -10 9.078125 -9.46875 C 9.367188 -8.945312 9.515625 -8.335938 9.515625 -7.640625 C 9.515625 -6.941406 9.367188 -6.332031 9.078125 -5.8125 C 8.796875 -5.289062 8.367188 -4.882812 7.796875 -4.59375 C 7.234375 -4.300781 6.550781 -4.15625 5.75 -4.15625 L 3.65625 -4.15625 L 3.65625 0 L 1.453125 0 L 1.453125 -11.140625 Z M 5.46875 -5.90625 C 6.6875 -5.90625 7.296875 -6.484375 7.296875 -7.640625 C 7.296875 -8.804688 6.6875 -9.390625 5.46875 -9.390625 L 3.65625 -9.390625 L 3.65625 -5.90625 Z M 5.46875 -5.90625 "/></g></g></g><g fill="#ffffff" fill-opacity="1"><g transform="translate(36.661927, 16.912364)"><g/></g></g><g fill="#ffffff" fill-opacity="1"><g transform="translate(40.342196, 16.912364)"><g><path d="M 8.640625 -6.953125 L 8.640625 -11.140625 L 10.84375 -11.140625 L 10.84375 0 L 8.640625 0 L 8.640625 -5.078125 L 3.65625 -5.078125 L 3.65625 0 L 1.453125 0 L 1.453125 -11.140625 L 3.65625 -11.140625 L 3.65625 -6.953125 Z M 8.640625 -6.953125 "/></g></g></g><g fill="#ffffff" fill-opacity="1"><g transform="translate(52.632607, 16.912364)"><g><path d="M 3.28125 0.15625 C 2.738281 0.15625 2.269531 0.0546875 1.875 -0.140625 C 1.476562 -0.335938 1.171875 -0.625 0.953125 -1 C 0.742188 -1.382812 0.640625 -1.847656 0.640625 -2.390625 C 0.640625 -2.890625 0.742188 -3.304688 0.953125 -3.640625 C 1.171875 -3.984375 1.503906 -4.257812 1.953125 -4.46875 C 2.398438 -4.6875 2.984375 -4.859375 3.703125 -4.984375 C 4.203125 -5.054688 4.582031 -5.140625 4.84375 -5.234375 C 5.113281 -5.335938 5.289062 -5.445312 5.375 -5.5625 C 5.46875 -5.6875 5.515625 -5.84375 5.515625 -6.03125 C 5.515625 -6.300781 5.421875 -6.507812 5.234375 -6.65625 C 5.046875 -6.800781 4.734375 -6.875 4.296875 -6.875 C 3.828125 -6.875 3.378906 -6.769531 2.953125 -6.5625 C 2.535156 -6.351562 2.175781 -6.078125 1.875 -5.734375 L 1.71875 -5.734375 L 0.828125 -7.0625 C 1.253906 -7.539062 1.773438 -7.910156 2.390625 -8.171875 C 3.003906 -8.429688 3.675781 -8.5625 4.40625 -8.5625 C 5.519531 -8.5625 6.320312 -8.328125 6.8125 -7.859375 C 7.3125 -7.390625 7.5625 -6.71875 7.5625 -5.84375 L 7.5625 -2.1875 C 7.5625 -1.8125 7.726562 -1.625 8.0625 -1.625 C 8.1875 -1.625 8.3125 -1.648438 8.4375 -1.703125 L 8.546875 -1.671875 L 8.703125 -0.203125 C 8.578125 -0.117188 8.410156 -0.0507812 8.203125 0 C 7.992188 0.0390625 7.765625 0.0625 7.515625 0.0625 C 7.015625 0.0625 6.625 -0.03125 6.34375 -0.21875 C 6.0625 -0.414062 5.859375 -0.722656 5.734375 -1.140625 L 5.578125 -1.15625 C 5.171875 -0.28125 4.40625 0.15625 3.28125 0.15625 Z M 3.953125 -1.421875 C 4.441406 -1.421875 4.832031 -1.582031 5.125 -1.90625 C 5.414062 -2.238281 5.5625 -2.695312 5.5625 -3.28125 L 5.5625 -4.125 L 5.40625 -4.15625 C 5.28125 -4.0625 5.113281 -3.976562 4.90625 -3.90625 C 4.707031 -3.832031 4.414062 -3.765625 4.03125 -3.703125 C 3.570312 -3.628906 3.238281 -3.5 3.03125 -3.3125 C 2.832031 -3.125 2.734375 -2.859375 2.734375 -2.515625 C 2.734375 -2.160156 2.835938 -1.890625 3.046875 -1.703125 C 3.265625 -1.515625 3.566406 -1.421875 3.953125 -1.421875 Z M 3.953125 -1.421875 "/></g></g></g><g fill="#ffffff" fill-opacity="1"><g transform="translate(61.4942, 16.912364)"><g><path d="M 1.21875 0 L 1.21875 -8.40625 L 3.265625 -8.40625 L 3.265625 -7.15625 L 3.421875 -7.125 C 3.628906 -7.59375 3.894531 -7.9375 4.21875 -8.15625 C 4.550781 -8.375 4.953125 -8.484375 5.421875 -8.484375 C 5.898438 -8.484375 6.265625 -8.398438 6.515625 -8.234375 L 6.15625 -6.421875 L 6 -6.390625 C 5.863281 -6.441406 5.726562 -6.476562 5.59375 -6.5 C 5.46875 -6.53125 5.316406 -6.546875 5.140625 -6.546875 C 4.546875 -6.546875 4.09375 -6.335938 3.78125 -5.921875 C 3.476562 -5.515625 3.328125 -4.851562 3.328125 -3.9375 L 3.328125 0 Z M 1.21875 0 "/></g></g></g><g fill="#ffffff" fill-opacity="1"><g transform="translate(68.085155, 16.912364)"><g><path d="M 5.875 0.15625 C 4.800781 0.15625 4.003906 -0.242188 3.484375 -1.046875 L 3.328125 -1.015625 L 3.328125 0 L 1.21875 0 L 1.21875 -11.78125 L 3.328125 -11.78125 L 3.328125 -7.421875 L 3.484375 -7.390625 C 3.773438 -7.785156 4.113281 -8.078125 4.5 -8.265625 C 4.894531 -8.460938 5.367188 -8.5625 5.921875 -8.5625 C 6.597656 -8.5625 7.191406 -8.398438 7.703125 -8.078125 C 8.210938 -7.765625 8.609375 -7.28125 8.890625 -6.625 C 9.179688 -5.96875 9.328125 -5.160156 9.328125 -4.203125 C 9.328125 -3.242188 9.175781 -2.4375 8.875 -1.78125 C 8.582031 -1.132812 8.175781 -0.648438 7.65625 -0.328125 C 7.132812 -0.00390625 6.539062 0.15625 5.875 0.15625 Z M 5.234375 -1.625 C 5.859375 -1.625 6.332031 -1.832031 6.65625 -2.25 C 6.976562 -2.664062 7.140625 -3.316406 7.140625 -4.203125 C 7.140625 -5.085938 6.976562 -5.738281 6.65625 -6.15625 C 6.332031 -6.570312 5.859375 -6.78125 5.234375 -6.78125 C 4.640625 -6.78125 4.164062 -6.566406 3.8125 -6.140625 C 3.46875 -5.710938 3.296875 -5.066406 3.296875 -4.203125 C 3.296875 -3.335938 3.46875 -2.691406 3.8125 -2.265625 C 4.164062 -1.835938 4.640625 -1.625 5.234375 -1.625 Z M 5.234375 -1.625 "/></g></g></g><g fill="#ffffff" fill-opacity="1"><g transform="translate(78.150644, 16.912364)"><g><path d="M 4.890625 0.15625 C 4.066406 0.15625 3.34375 -0.0078125 2.71875 -0.34375 C 2.09375 -0.6875 1.609375 -1.179688 1.265625 -1.828125 C 0.921875 -2.484375 0.75 -3.273438 0.75 -4.203125 C 0.75 -5.128906 0.921875 -5.914062 1.265625 -6.5625 C 1.609375 -7.21875 2.09375 -7.710938 2.71875 -8.046875 C 3.34375 -8.390625 4.066406 -8.5625 4.890625 -8.5625 C 5.710938 -8.5625 6.429688 -8.390625 7.046875 -8.046875 C 7.671875 -7.710938 8.15625 -7.21875 8.5 -6.5625 C 8.851562 -5.914062 9.03125 -5.128906 9.03125 -4.203125 C 9.03125 -3.273438 8.851562 -2.484375 8.5 -1.828125 C 8.15625 -1.179688 7.671875 -0.6875 7.046875 -0.34375 C 6.429688 -0.0078125 5.710938 0.15625 4.890625 0.15625 Z M 4.890625 -1.625 C 6.191406 -1.625 6.84375 -2.484375 6.84375 -4.203125 C 6.84375 -5.085938 6.675781 -5.738281 6.34375 -6.15625 C 6.007812 -6.570312 5.523438 -6.78125 4.890625 -6.78125 C 3.578125 -6.78125 2.921875 -5.921875 2.921875 -4.203125 C 2.921875 -2.484375 3.578125 -1.625 4.890625 -1.625 Z M 4.890625 -1.625 "/></g></g></g><g fill="#ffffff" fill-opacity="1"><g transform="translate(87.918963, 16.912364)"><g><path d="M 3.84375 0.15625 C 2.90625 0.15625 2.207031 -0.0976562 1.75 -0.609375 C 1.300781 -1.128906 1.078125 -1.867188 1.078125 -2.828125 L 1.078125 -8.40625 L 3.1875 -8.40625 L 3.1875 -3.109375 C 3.1875 -2.585938 3.296875 -2.207031 3.515625 -1.96875 C 3.742188 -1.738281 4.085938 -1.625 4.546875 -1.625 C 5.128906 -1.625 5.582031 -1.816406 5.90625 -2.203125 C 6.238281 -2.585938 6.40625 -3.191406 6.40625 -4.015625 L 6.40625 -8.40625 L 8.515625 -8.40625 L 8.515625 0 L 6.484375 0 L 6.484375 -1.234375 L 6.328125 -1.265625 C 6.054688 -0.785156 5.722656 -0.425781 5.328125 -0.1875 C 4.941406 0.0390625 4.445312 0.15625 3.84375 0.15625 Z M 3.84375 0.15625 "/></g></g></g><g clip-path="url(#96093f1e39)"><g fill="#ffffff" fill-opacity="1"><g transform="translate(97.641565, 16.912364)"><g><path d="M 1.21875 0 L 1.21875 -8.40625 L 3.265625 -8.40625 L 3.265625 -7.15625 L 3.421875 -7.125 C 3.628906 -7.59375 3.894531 -7.9375 4.21875 -8.15625 C 4.550781 -8.375 4.953125 -8.484375 5.421875 -8.484375 C 5.898438 -8.484375 6.265625 -8.398438 6.515625 -8.234375 L 6.15625 -6.421875 L 6 -6.390625 C 5.863281 -6.441406 5.726562 -6.476562 5.59375 -6.5 C 5.46875 -6.53125 5.316406 -6.546875 5.140625 -6.546875 C 4.546875 -6.546875 4.09375 -6.335938 3.78125 -5.921875 C 3.476562 -5.515625 3.328125 -4.851562 3.328125 -3.9375 L 3.328125 0 Z M 1.21875 0 "/></g></g></g></g></g></g></g></g></g></g></svg>