<svg xmlns="http://www.w3.org/2000/svg" xmlns:xlink="http://www.w3.org/1999/xlink" width="48" zoomAndPan="magnify" viewBox="0 0 36 31.5" height="42" preserveAspectRatio="xMidYMid meet" version="1.0"><defs><clipPath id="cb48281168"><path d="M 9.558594 0 L 26.539062 0 L 26.539062 4 L 9.558594 4 Z M 9.558594 0 " clip-rule="nonzero"/></clipPath><clipPath id="936cd431f3"><path d="M 9.558594 4 L 26.539062 4 L 26.539062 9 L 9.558594 9 Z M 9.558594 4 " clip-rule="nonzero"/></clipPath><clipPath id="4efa3796e0"><path d="M 9.558594 9 L 26.539062 9 L 26.539062 13.289062 L 9.558594 13.289062 Z M 9.558594 9 " clip-rule="nonzero"/></clipPath><clipPath id="0b801f5c2c"><path d="M 1 28 L 35 28 L 35 30.90625 L 1 30.90625 Z M 1 28 " clip-rule="nonzero"/></clipPath><clipPath id="776fec3bfe"><path d="M 31 3.589844 L 35.71875 3.589844 L 35.71875 30.90625 L 31 30.90625 Z M 31 3.589844 " clip-rule="nonzero"/></clipPath><clipPath id="bbd50e039c"><path d="M 0.28125 3.589844 L 5 3.589844 L 5 30.90625 L 0.28125 30.90625 Z M 0.28125 3.589844 " clip-rule="nonzero"/></clipPath></defs><g clip-path="url(#cb48281168)"><path fill="#10b981" d="M 26.417969 1.183594 C 26.417969 0.527344 25.890625 0 25.230469 0 L 10.75 0 C 10.09375 0 9.566406 0.527344 9.566406 1.183594 L 9.566406 2.765625 C 9.566406 3.421875 10.09375 3.949219 10.75 3.949219 L 25.230469 3.949219 C 25.890625 3.949219 26.417969 3.421875 26.417969 2.765625 Z M 11.398438 2.75 C 10.976562 2.75 10.621094 2.394531 10.621094 1.976562 C 10.621094 1.539062 10.976562 1.199219 11.398438 1.199219 C 11.816406 1.199219 12.171875 1.554688 12.171875 1.976562 C 12.1875 2.394531 11.832031 2.75 11.398438 2.75 Z M 21.28125 2.105469 C 21.28125 2.476562 20.992188 2.765625 20.625 2.765625 L 13.515625 2.765625 C 13.148438 2.765625 12.859375 2.476562 12.859375 2.105469 L 12.859375 1.84375 C 12.859375 1.472656 13.148438 1.183594 13.515625 1.183594 L 20.625 1.183594 C 20.992188 1.183594 21.28125 1.472656 21.28125 1.84375 Z M 22.203125 2.5 C 21.914062 2.5 21.664062 2.265625 21.664062 1.960938 C 21.664062 1.660156 21.902344 1.421875 22.203125 1.421875 C 22.507812 1.421875 22.746094 1.660156 22.746094 1.960938 C 22.746094 2.265625 22.492188 2.5 22.203125 2.5 Z M 23.519531 2.5 C 23.230469 2.5 22.980469 2.265625 22.980469 1.960938 C 22.980469 1.660156 23.21875 1.421875 23.519531 1.421875 C 23.824219 1.421875 24.0625 1.660156 24.0625 1.960938 C 24.0625 2.265625 23.808594 2.5 23.519531 2.5 Z M 24.835938 2.5 C 24.546875 2.5 24.296875 2.265625 24.296875 1.960938 C 24.296875 1.660156 24.535156 1.421875 24.835938 1.421875 C 25.140625 1.421875 25.378906 1.660156 25.378906 1.960938 C 25.378906 2.265625 25.125 2.5 24.835938 2.5 Z M 24.835938 2.5 " fill-opacity="1" fill-rule="nonzero"/></g><g clip-path="url(#936cd431f3)"><path fill="#10b981" d="M 26.417969 5.925781 C 26.417969 5.265625 25.890625 4.738281 25.230469 4.738281 L 10.75 4.738281 C 10.09375 4.738281 9.566406 5.265625 9.566406 5.925781 L 9.566406 7.503906 C 9.566406 8.160156 10.09375 8.6875 10.75 8.6875 L 25.230469 8.6875 C 25.890625 8.6875 26.417969 8.160156 26.417969 7.503906 Z M 11.398438 7.492188 C 10.960938 7.492188 10.621094 7.136719 10.621094 6.714844 C 10.621094 6.292969 10.976562 5.9375 11.398438 5.9375 C 11.816406 5.9375 12.171875 6.292969 12.171875 6.714844 C 12.171875 7.136719 11.832031 7.492188 11.398438 7.492188 Z M 21.28125 6.84375 C 21.28125 7.214844 20.992188 7.503906 20.625 7.503906 L 13.515625 7.503906 C 13.148438 7.503906 12.859375 7.214844 12.859375 6.84375 L 12.859375 6.582031 C 12.859375 6.214844 13.148438 5.925781 13.515625 5.925781 L 20.625 5.925781 C 20.992188 5.925781 21.28125 6.214844 21.28125 6.582031 Z M 22.203125 7.242188 C 21.914062 7.242188 21.664062 7.003906 21.664062 6.699219 C 21.664062 6.398438 21.902344 6.160156 22.203125 6.160156 C 22.507812 6.160156 22.746094 6.398438 22.746094 6.699219 C 22.746094 7.003906 22.492188 7.242188 22.203125 7.242188 Z M 23.519531 7.242188 C 23.230469 7.242188 22.980469 7.003906 22.980469 6.699219 C 22.980469 6.398438 23.21875 6.160156 23.519531 6.160156 C 23.824219 6.160156 24.0625 6.398438 24.0625 6.699219 C 24.0625 7.003906 23.808594 7.242188 23.519531 7.242188 Z M 24.835938 7.242188 C 24.546875 7.242188 24.296875 7.003906 24.296875 6.699219 C 24.296875 6.398438 24.535156 6.160156 24.835938 6.160156 C 25.140625 6.160156 25.378906 6.398438 25.378906 6.699219 C 25.378906 7.003906 25.125 7.242188 24.835938 7.242188 Z M 24.835938 7.242188 " fill-opacity="1" fill-rule="nonzero"/></g><g clip-path="url(#4efa3796e0)"><path fill="#10b981" d="M 26.417969 10.664062 C 26.417969 10.003906 25.890625 9.476562 25.230469 9.476562 L 10.75 9.476562 C 10.09375 9.476562 9.566406 10.003906 9.566406 10.664062 L 9.566406 12.242188 C 9.566406 12.902344 10.09375 13.425781 10.75 13.425781 L 25.230469 13.425781 C 25.890625 13.425781 26.417969 12.902344 26.417969 12.242188 Z M 11.398438 12.214844 C 10.960938 12.214844 10.621094 11.859375 10.621094 11.441406 C 10.621094 11.019531 10.976562 10.664062 11.398438 10.664062 C 11.816406 10.664062 12.171875 11.019531 12.171875 11.441406 C 12.1875 11.875 11.832031 12.214844 11.398438 12.214844 Z M 21.28125 11.585938 C 21.28125 11.953125 20.992188 12.242188 20.625 12.242188 L 13.515625 12.242188 C 13.148438 12.242188 12.859375 11.953125 12.859375 11.585938 L 12.859375 11.320312 C 12.859375 10.953125 13.148438 10.664062 13.515625 10.664062 L 20.625 10.664062 C 20.992188 10.664062 21.28125 10.953125 21.28125 11.320312 Z M 22.203125 11.964844 C 21.914062 11.964844 21.664062 11.730469 21.664062 11.425781 C 21.664062 11.125 21.902344 10.886719 22.203125 10.886719 C 22.507812 10.886719 22.746094 11.125 22.746094 11.425781 C 22.746094 11.730469 22.492188 11.964844 22.203125 11.964844 Z M 23.519531 11.964844 C 23.230469 11.964844 22.980469 11.730469 22.980469 11.425781 C 22.980469 11.125 23.21875 10.886719 23.519531 10.886719 C 23.824219 10.886719 24.0625 11.125 24.0625 11.425781 C 24.0625 11.730469 23.808594 11.964844 23.519531 11.964844 Z M 24.835938 11.964844 C 24.546875 11.964844 24.296875 11.730469 24.296875 11.425781 C 24.296875 11.125 24.535156 10.886719 24.835938 10.886719 C 25.140625 10.886719 25.378906 11.125 25.378906 11.425781 C 25.378906 11.730469 25.125 11.964844 24.835938 11.964844 Z M 24.835938 11.964844 " fill-opacity="1" fill-rule="nonzero"/></g><g clip-path="url(#0b801f5c2c)"><path fill="#4a4dae" d="M 1.671875 28.382812 L 34.332031 28.382812 L 34.332031 30.976562 L 1.671875 30.976562 Z M 1.671875 28.382812 " fill-opacity="1" fill-rule="evenodd"/></g><g clip-path="url(#776fec3bfe)"><path fill="#4a4dae" d="M 33.261719 3.589844 L 35.703125 30.976562 L 31.964844 30.976562 L 31.964844 3.589844 Z M 33.261719 3.589844 L 35.703125 30.976562 L 31.964844 30.976562 L 31.964844 3.589844 Z M 33.261719 3.589844 " fill-opacity="1" fill-rule="nonzero"/></g><g clip-path="url(#bbd50e039c)"><path fill="#4a4dae" d="M 2.738281 3.589844 L 0.296875 30.976562 L 4.035156 30.976562 L 4.035156 3.589844 Z M 2.738281 3.589844 L 0.296875 30.976562 L 4.035156 30.976562 L 4.035156 3.589844 Z M 2.738281 3.589844 " fill-opacity="1" fill-rule="nonzero"/></g><path fill="#4a4dae" d="M 12.359375 23.949219 L 14.066406 23.949219 L 14.066406 28.703125 L 12.359375 28.703125 Z M 12.359375 23.949219 " fill-opacity="1" fill-rule="evenodd"/><path fill="#4a4dae" d="M 21.933594 23.949219 L 23.640625 23.949219 L 23.640625 28.703125 L 21.933594 28.703125 Z M 21.933594 23.949219 " fill-opacity="1" fill-rule="evenodd"/><path fill="#ffffff" d="M 5.34375 11.796875 L 8.859375 22.988281 L 17.988281 27.226562 L 17.988281 7.589844 Z M 5.34375 11.796875 L 8.859375 22.988281 L 17.988281 27.226562 L 17.988281 7.589844 Z M 30.644531 11.796875 L 27.125 22.988281 L 17.988281 27.226562 L 17.988281 7.585938 Z M 30.644531 11.796875 L 27.125 22.988281 L 17.988281 27.226562 L 17.988281 7.585938 Z M 30.644531 11.796875 " fill-opacity="1" fill-rule="nonzero"/><path fill="#4a4dae" d="M 6.199219 12.171875 L 9.480469 22.617188 L 18 26.570312 L 18 8.246094 Z M 6.199219 12.171875 L 9.480469 22.617188 L 18 26.570312 L 18 8.246094 Z M 6.199219 12.171875 " fill-opacity="1" fill-rule="nonzero"/><path fill="#10b981" d="M 29.808594 12.171875 L 26.527344 22.617188 L 18 26.570312 L 18 8.242188 Z M 29.808594 12.171875 L 26.527344 22.617188 L 18 26.570312 L 18 8.242188 Z M 29.808594 12.171875 " fill-opacity="1" fill-rule="nonzero"/><path fill="#ffffff" d="M 17.933594 8.242188 L 18.066406 8.242188 L 18.066406 26.570312 L 17.933594 26.570312 Z M 17.933594 8.242188 " fill-opacity="1" fill-rule="evenodd"/></svg>